<?xml version="1.0" encoding="utf-8"?>
<!-- Generator: Adobe Illustrator 15.1.0, SVG Export Plug-In . SVG Version: 6.00 Build 0)  -->
<!DOCTYPE svg PUBLIC "-//W3C//DTD SVG 1.1//EN" "http://www.w3.org/Graphics/SVG/1.1/DTD/svg11.dtd">
<svg version="1.1" id="Layer_1" xmlns="http://www.w3.org/2000/svg" xmlns:xlink="http://www.w3.org/1999/xlink" x="0px" y="0px"
	 width="54.842px" height="53.188px" viewBox="0 0 54.842 53.188" enable-background="new 0 0 54.842 53.188" xml:space="preserve">
<g id="XMLID_8050_">
	<g id="XMLID_14449_">
		<path id="XMLID_14447_" fill="#FFFFFF" d="M23.087,52.601c0.233,0.135,0.233,0.353,0,0.486c-0.233,0.135-0.61,0.135-0.843,0
			c-0.233-0.134-0.233-0.352,0-0.486S22.854,52.466,23.087,52.601z"/>
		<path id="XMLID_14446_" fill="#FFFFFF" d="M25.292,51.327c0.233,0.135,0.233,0.353,0,0.487c-0.233,0.134-0.61,0.134-0.843,0
			c-0.233-0.135-0.233-0.353,0-0.487S25.06,51.192,25.292,51.327z"/>
		<path id="XMLID_14445_" fill="#FFFFFF" d="M27.498,50.054c0.233,0.135,0.233,0.353,0,0.487s-0.611,0.135-0.843,0
			c-0.233-0.135-0.233-0.353,0-0.487C26.887,49.92,27.265,49.92,27.498,50.054z"/>
		<path id="XMLID_14444_" fill="#FFFFFF" d="M29.703,48.781c0.232,0.135,0.232,0.353,0,0.487c-0.232,0.134-0.611,0.134-0.844,0
			c-0.232-0.135-0.232-0.353,0-0.487S29.47,48.646,29.703,48.781z"/>
		<path id="XMLID_14443_" fill="#FFFFFF" d="M31.908,47.508c0.232,0.135,0.232,0.353,0,0.487c-0.232,0.134-0.61,0.134-0.844,0
			c-0.232-0.135-0.232-0.353,0-0.487C31.297,47.373,31.675,47.373,31.908,47.508z"/>
		<path id="XMLID_14442_" fill="#FFFFFF" d="M34.113,46.235c0.232,0.134,0.232,0.352,0,0.486s-0.611,0.135-0.844,0
			s-0.232-0.353,0-0.486C33.501,46.101,33.88,46.101,34.113,46.235z"/>
		<path id="XMLID_14441_" fill="#FFFFFF" d="M36.318,44.962c0.232,0.135,0.232,0.353,0,0.487c-0.232,0.134-0.611,0.134-0.844,0
			c-0.232-0.135-0.232-0.353,0-0.487S36.085,44.827,36.318,44.962z"/>
		<path id="XMLID_14440_" fill="#FFFFFF" d="M38.523,43.688c0.232,0.135,0.232,0.353,0,0.487c-0.232,0.134-0.611,0.134-0.844,0
			c-0.232-0.135-0.232-0.353,0-0.487C37.912,43.555,38.291,43.555,38.523,43.688z"/>
		<path id="XMLID_14439_" fill="#FFFFFF" d="M40.728,42.416c0.232,0.134,0.232,0.353,0,0.486c-0.232,0.135-0.611,0.135-0.844,0
			c-0.232-0.134-0.232-0.353,0-0.486C40.117,42.281,40.496,42.281,40.728,42.416z"/>
		<path id="XMLID_14438_" fill="#FFFFFF" d="M42.933,41.143c0.232,0.135,0.232,0.353,0,0.486c-0.233,0.135-0.611,0.135-0.844,0
			c-0.232-0.134-0.232-0.352,0-0.486S42.7,41.008,42.933,41.143z"/>
		<path id="XMLID_14437_" fill="#FFFFFF" d="M45.138,39.869c0.232,0.135,0.232,0.353,0,0.487c-0.233,0.135-0.611,0.135-0.844,0
			s-0.232-0.353,0-0.487C44.527,39.735,44.905,39.735,45.138,39.869z"/>
		<path id="XMLID_14436_" fill="#FFFFFF" d="M47.343,38.597c0.232,0.134,0.232,0.353,0,0.486c-0.233,0.135-0.611,0.135-0.844,0
			c-0.232-0.134-0.232-0.353,0-0.486C46.732,38.462,47.11,38.462,47.343,38.597z"/>
		<path id="XMLID_14435_" fill="#FFFFFF" d="M49.548,37.323c0.232,0.135,0.232,0.353,0,0.487c-0.233,0.134-0.611,0.134-0.844,0
			c-0.232-0.135-0.232-0.353,0-0.487S49.316,37.188,49.548,37.323z"/>
		<path id="XMLID_14433_" fill="#FFFFFF" d="M20.882,51.327c0.233,0.135,0.233,0.353,0,0.487c-0.233,0.134-0.61,0.134-0.843,0
			c-0.233-0.135-0.233-0.353,0-0.487S20.649,51.192,20.882,51.327z"/>
		<path id="XMLID_14432_" fill="#FFFFFF" d="M23.087,50.054c0.233,0.135,0.233,0.353,0,0.487s-0.61,0.135-0.843,0
			s-0.233-0.353,0-0.487C22.477,49.92,22.854,49.92,23.087,50.054z"/>
		<path id="XMLID_14431_" fill="#191411" d="M25.292,48.781c0.233,0.135,0.233,0.353,0,0.487c-0.233,0.134-0.61,0.134-0.843,0
			c-0.233-0.135-0.233-0.353,0-0.487S25.06,48.646,25.292,48.781S25.06,48.646,25.292,48.781z"/>
		<path id="XMLID_14430_" fill="#191411" d="M34.113,43.688c0.232,0.135,0.232,0.353,0,0.487c-0.232,0.134-0.611,0.134-0.844,0
			C33.037,44.041,33.88,43.555,34.113,43.688z"/>
		<path id="XMLID_14429_" fill="#191411" d="M36.318,42.416c0.232,0.134,0.232,0.353,0,0.486c-0.232,0.135-0.611,0.135-0.844,0
			C35.242,42.769,36.085,42.281,36.318,42.416z"/>
		<path id="XMLID_14428_" fill="#191411" d="M38.523,41.143c0.232,0.135,0.232,0.353,0,0.487c-0.232,0.134-0.611,0.134-0.844,0
			C37.447,41.495,38.291,41.008,38.523,41.143z"/>
		<path id="XMLID_14427_" fill="#191411" d="M39.884,39.869c0.232-0.134,0.611-0.134,0.844,0c0.232,0.135,0.232,0.353,0,0.487
			s-0.611,0.135-0.844,0S39.652,40.004,39.884,39.869C40.117,39.735,39.652,40.004,39.884,39.869z"/>
		<path id="XMLID_14426_" fill="#191411" d="M42.089,38.597c0.232-0.135,0.611-0.135,0.844,0c0.232,0.134,0.232,0.353,0,0.486
			c-0.232,0.135-0.611,0.135-0.844,0C41.857,38.949,41.857,38.73,42.089,38.597C42.322,38.462,41.857,38.73,42.089,38.597z"/>
		<path id="XMLID_14425_" fill="#191411" d="M44.294,37.323c0.232-0.135,0.61-0.135,0.844,0c0.232,0.135,0.232,0.353,0,0.487
			c-0.233,0.134-0.611,0.134-0.844,0C44.062,37.676,44.062,37.458,44.294,37.323S44.062,37.458,44.294,37.323z"/>
		<path id="XMLID_14424_" fill="#191411" d="M46.5,36.05c0.232-0.134,0.61-0.134,0.844,0c0.232,0.135,0.232,0.353,0,0.487
			c-0.233,0.135-0.611,0.135-0.844,0S46.267,36.185,46.5,36.05C46.732,35.916,46.267,36.185,46.5,36.05z"/>
		<path id="XMLID_14422_" fill="#FFFFFF" d="M18.677,50.054c0.233,0.135,0.233,0.353,0,0.487s-0.61,0.135-0.843,0
			s-0.233-0.353,0-0.487C18.067,49.92,18.444,49.92,18.677,50.054z"/>
		<path id="XMLID_14421_" fill="#FFFFFF" d="M20.882,48.781c0.233,0.135,0.233,0.353,0,0.487c-0.233,0.134-0.61,0.134-0.843,0
			c-0.233-0.135-0.233-0.353,0-0.487S20.649,48.646,20.882,48.781z"/>
		<path id="XMLID_14420_" fill="#191411" d="M23.087,47.508c0.233,0.135,0.233,0.353,0,0.487c-0.233,0.134-0.61,0.134-0.843,0
			c-0.233-0.135-0.233-0.353,0-0.487S22.854,47.373,23.087,47.508S22.854,47.373,23.087,47.508z"/>
		<path id="XMLID_14418_" fill="#FFFFFF" d="M16.472,48.781c0.233,0.135,0.233,0.353,0,0.487c-0.233,0.134-0.61,0.134-0.843,0
			c-0.233-0.135-0.233-0.353,0-0.487S16.239,48.646,16.472,48.781z"/>
		<path id="XMLID_14417_" fill="#FFFFFF" d="M18.677,47.508c0.233,0.135,0.233,0.353,0,0.487c-0.233,0.134-0.61,0.134-0.843,0
			c-0.233-0.135-0.233-0.353,0-0.487C18.067,47.374,18.444,47.374,18.677,47.508z"/>
		<path id="XMLID_14416_" fill="#191411" d="M20.882,46.235c0.233,0.134,0.233,0.352,0,0.486s-0.61,0.135-0.843,0
			s-0.233-0.353,0-0.486C20.272,46.101,20.649,46.101,20.882,46.235C21.115,46.369,20.649,46.101,20.882,46.235z"/>
		<path id="XMLID_14414_" fill="#FFFFFF" d="M14.267,47.508c0.233,0.135,0.233,0.353,0,0.487c-0.233,0.134-0.61,0.134-0.843,0
			c-0.233-0.135-0.233-0.353,0-0.487C13.657,47.374,14.034,47.374,14.267,47.508z"/>
		<path id="XMLID_14413_" fill="#FFFFFF" d="M16.472,46.235c0.233,0.134,0.233,0.352,0,0.486s-0.61,0.135-0.843,0
			s-0.233-0.353,0-0.486C15.862,46.101,16.239,46.101,16.472,46.235z"/>
		<path id="XMLID_14412_" fill="#191411" d="M18.677,45.449c-0.233,0.134-0.61,0.134-0.843,0c-0.233-0.135-0.233-0.353,0-0.487
			S18.91,45.314,18.677,45.449z"/>
		<path id="XMLID_14410_" fill="#FFFFFF" d="M12.043,46.222c0.233,0.135,0.233,0.353,0,0.486c-0.233,0.135-0.61,0.135-0.843,0
			c-0.233-0.134-0.233-0.352,0-0.486S11.81,46.087,12.043,46.222z"/>
		<path id="XMLID_14409_" fill="#FFFFFF" d="M14.248,44.948c0.233,0.135,0.233,0.353,0,0.487s-0.61,0.135-0.843,0
			s-0.233-0.353,0-0.487C13.638,44.814,14.015,44.814,14.248,44.948z"/>
		<path id="XMLID_14408_" fill="#191411" d="M16.453,44.162c-0.233,0.135-0.61,0.135-0.843,0s-0.233-0.353,0-0.486
			C15.843,43.541,16.686,44.027,16.453,44.162z"/>
		<path id="XMLID_14406_" fill="#FFFFFF" d="M9.838,44.948c0.233,0.135,0.233,0.353,0,0.487s-0.61,0.135-0.843,0
			s-0.233-0.353,0-0.487C9.228,44.814,9.605,44.814,9.838,44.948z"/>
		<path id="XMLID_14405_" fill="#FFFFFF" d="M12.043,43.676c0.233,0.134,0.233,0.352,0,0.486s-0.61,0.135-0.843,0
			s-0.233-0.353,0-0.486C11.433,43.541,11.81,43.541,12.043,43.676z"/>
		<path id="XMLID_14403_" fill="#FFFFFF" d="M7.633,43.676c0.233,0.134,0.233,0.352,0,0.486s-0.61,0.135-0.843,0
			s-0.233-0.353,0-0.486C7.022,43.541,7.4,43.541,7.633,43.676z"/>
		<path id="XMLID_14402_" fill="#FFFFFF" d="M9.838,42.402c0.233,0.135,0.233,0.353,0,0.487c-0.233,0.134-0.61,0.134-0.843,0
			c-0.233-0.135-0.233-0.353,0-0.487S9.605,42.268,9.838,42.402z"/>
		<path id="XMLID_14401_" fill="#191411" d="M12.043,41.616c-0.233,0.135-0.61,0.135-0.843,0s-0.233-0.353,0-0.487
			C11.433,40.995,12.276,41.481,12.043,41.616z"/>
		<path id="XMLID_14399_" fill="#FFFFFF" d="M5.428,42.402c0.233,0.135,0.233,0.353,0,0.487c-0.233,0.134-0.61,0.134-0.843,0
			c-0.233-0.135-0.233-0.353,0-0.487S5.195,42.268,5.428,42.402z"/>
		<path id="XMLID_14398_" fill="#FFFFFF" d="M7.633,41.129c0.233,0.135,0.233,0.353,0,0.487s-0.61,0.135-0.843,0
			s-0.233-0.353,0-0.487C7.022,40.995,7.4,40.995,7.633,41.129z"/>
		<path id="XMLID_14397_" fill="#191411" d="M9.838,40.343c-0.233,0.135-0.61,0.135-0.843,0c-0.233-0.134-0.233-0.353,0-0.486
			C9.228,39.722,10.071,40.209,9.838,40.343z"/>
		<path id="XMLID_14395_" fill="#FFFFFF" d="M3.223,41.129c0.233,0.135,0.233,0.353,0,0.487s-0.61,0.135-0.843,0
			s-0.233-0.353,0-0.487C2.612,40.995,2.99,40.995,3.223,41.129z"/>
		<path id="XMLID_14394_" fill="#FFFFFF" d="M5.428,39.856c0.233,0.134,0.233,0.353,0,0.486c-0.233,0.135-0.61,0.135-0.843,0
			c-0.233-0.134-0.233-0.353,0-0.486C4.817,39.722,5.195,39.722,5.428,39.856z"/>
		<path id="XMLID_14393_" fill="#191411" d="M7.633,39.07c-0.233,0.134-0.61,0.134-0.843,0c-0.233-0.135-0.233-0.353,0-0.487
			S7.866,38.936,7.633,39.07z"/>
		<path id="XMLID_14392_" fill="#FFFFFF" d="M1.018,39.856c0.232,0.134,0.232,0.353,0,0.486c-0.233,0.135-0.611,0.135-0.844,0
			c-0.233-0.134-0.233-0.353,0-0.486C0.407,39.722,0.785,39.722,1.018,39.856z"/>
		<path id="XMLID_14391_" fill="#FFFFFF" d="M3.223,38.583c0.233,0.135,0.233,0.353,0,0.487c-0.233,0.134-0.61,0.134-0.843,0
			c-0.233-0.135-0.233-0.353,0-0.487S2.99,38.448,3.223,38.583z"/>
		<path id="XMLID_14390_" fill="#191411" d="M5.428,37.31c0.233,0.135,0.233,0.353,0,0.487s-0.61,0.135-0.843,0
			s-0.233-0.353,0-0.487C4.817,37.176,5.195,37.176,5.428,37.31z"/>
		<path id="XMLID_14389_" fill="#FFFFFF" d="M1.018,37.31c0.232,0.135,0.232,0.353,0,0.487c-0.233,0.135-0.611,0.135-0.844,0
			s-0.233-0.353,0-0.487C0.407,37.176,0.785,37.176,1.018,37.31z"/>
		<path id="XMLID_14388_" fill="#191411" d="M3.223,36.523c-0.232,0.135-0.61,0.135-0.843,0c-0.233-0.134-0.233-0.353,0-0.486
			C2.612,35.902,3.456,36.39,3.223,36.523z"/>
		<path id="XMLID_14372_" fill="#FFFFFF" d="M27.584,52.396c0.232,0.135,0.232,0.353,0,0.487c-0.233,0.135-0.611,0.135-0.844,0
			s-0.233-0.353,0-0.487S27.351,52.262,27.584,52.396z"/>
		<path id="XMLID_14371_" fill="#FFFFFF" d="M29.789,51.123c0.232,0.135,0.232,0.353,0,0.487s-0.61,0.135-0.844,0
			c-0.232-0.135-0.232-0.353,0-0.487C29.178,50.989,29.556,50.989,29.789,51.123z"/>
		<path id="XMLID_14370_" fill="#FFFFFF" d="M31.994,49.851c0.233,0.135,0.233,0.353,0,0.486c-0.232,0.135-0.61,0.135-0.844,0
			c-0.232-0.134-0.232-0.352,0-0.486C31.383,49.716,31.761,49.716,31.994,49.851z"/>
		<path id="XMLID_14369_" fill="#FFFFFF" d="M34.199,48.577c0.232,0.135,0.232,0.353,0,0.487s-0.61,0.135-0.844,0
			c-0.232-0.135-0.232-0.353,0-0.487C33.588,48.442,33.966,48.442,34.199,48.577z"/>
		<path id="XMLID_14368_" fill="#FFFFFF" d="M36.404,47.305c0.232,0.134,0.232,0.353,0,0.486c-0.232,0.135-0.61,0.135-0.844,0
			c-0.232-0.134-0.232-0.353,0-0.486C35.793,47.17,36.171,47.17,36.404,47.305z"/>
		<path id="XMLID_14367_" fill="#FFFFFF" d="M38.609,46.031c0.232,0.135,0.232,0.353,0,0.487c-0.232,0.134-0.61,0.134-0.844,0
			c-0.232-0.135-0.232-0.353,0-0.487C37.999,45.896,38.376,45.896,38.609,46.031z"/>
		<path id="XMLID_14366_" fill="#FFFFFF" d="M40.814,44.758c0.232,0.135,0.232,0.353,0,0.487c-0.232,0.134-0.61,0.134-0.844,0
			c-0.232-0.135-0.232-0.353,0-0.487C40.204,44.624,40.582,44.624,40.814,44.758z"/>
		<path id="XMLID_14365_" fill="#FFFFFF" d="M43.019,43.485c0.232,0.134,0.232,0.353,0,0.486c-0.232,0.135-0.61,0.135-0.844,0
			c-0.232-0.134-0.232-0.353,0-0.486C42.409,43.351,42.787,43.351,43.019,43.485z"/>
		<path id="XMLID_14364_" fill="#FFFFFF" d="M45.224,42.212c0.232,0.135,0.232,0.353,0,0.487c-0.232,0.134-0.61,0.134-0.844,0
			c-0.232-0.135-0.232-0.353,0-0.487C44.614,42.077,44.992,42.077,45.224,42.212z"/>
		<path id="XMLID_14363_" fill="#FFFFFF" d="M47.429,40.938c0.232,0.135,0.232,0.353,0,0.487s-0.61,0.135-0.844,0
			c-0.232-0.135-0.232-0.353,0-0.487C46.819,40.805,47.197,40.805,47.429,40.938z"/>
		<path id="XMLID_14362_" fill="#FFFFFF" d="M49.634,39.666c0.232,0.134,0.232,0.353,0,0.486c-0.232,0.135-0.61,0.135-0.844,0
			c-0.232-0.134-0.232-0.353,0-0.486C49.024,39.531,49.402,39.531,49.634,39.666z"/>
		<path id="XMLID_14361_" fill="#FFFFFF" d="M51.839,38.393c0.232,0.135,0.232,0.353,0,0.487c-0.232,0.134-0.61,0.134-0.844,0
			c-0.232-0.135-0.232-0.353,0-0.487C51.229,38.258,51.607,38.258,51.839,38.393z"/>
		<path id="XMLID_14360_" fill="#FFFFFF" d="M51.771,36.061c0.232,0.135,0.232,0.353,0,0.487s-0.61,0.135-0.844,0
			c-0.232-0.135-0.232-0.353,0-0.487C51.161,35.927,51.539,35.927,51.771,36.061z"/>
		<path id="XMLID_14359_" fill="#FFFFFF" d="M53.976,34.788c0.232,0.135,0.232,0.353,0,0.486c-0.232,0.135-0.61,0.135-0.844,0
			c-0.232-0.134-0.232-0.352,0-0.486C53.366,34.653,53.744,34.653,53.976,34.788z"/>
		<path id="XMLID_14358_" fill="#191411" d="M49.563,34.788c0.233,0.135,0.233,0.353,0.001,0.487s-0.609,0.135-0.843,0.001
			S49.33,34.654,49.563,34.788z"/>
		<path id="XMLID_14356_" fill="#FFFFFF" d="M53.216,37.132c0.232-0.135,0.609-0.135,0.844-0.001
			c0.232,0.135,0.233,0.353,0.001,0.487s-0.61,0.135-0.843,0.001C52.984,37.484,52.984,37.267,53.216,37.132z"/>
	</g>
	<g id="XMLID_8114_">
		<g id="XMLID_8149_">
			<g id="XMLID_8184_">
				<path id="XMLID_8189_" fill="#204EA2" d="M54.654,30.736c0-0.013,0.001-0.025,0-0.039v-0.793h-0.516
					c-0.035-0.023-0.07-0.048-0.109-0.071L32.821,17.589c-0.929-0.536-2.552-0.469-3.626,0.15L2.108,33.486
					c-0.192,0.111-0.352,0.232-0.482,0.359H1.222v1.843c0.008,0.332,0.214,0.649,0.626,0.887l21.208,12.244
					c0.929,0.537,2.552,0.47,3.625-0.149l27.087-15.747c0.567-0.328,0.864-0.744,0.884-1.143l0.002-0.497V30.736z"/>
				<path id="XMLID_8188_" fill="#204EA2" d="M54.652,31.772l0.002-0.497v-0.546c0-0.014,0.001-0.026,0-0.04v-0.792h-0.516
					c-0.035-0.024-0.07-0.049-0.109-0.072l-7.867-4.542c-0.599,0.015-1.033,0.048-1.216,0.108
					c-1.119,0.371-19.148,10.854-19.512,12.444c-0.364,1.591-1.039,9.559-1.039,9.559v1.771c0.779,0.043,1.633-0.127,2.286-0.503
					l27.087-15.747C54.335,32.587,54.632,32.172,54.652,31.772z"/>
				<path id="XMLID_8185_" fill="#FFFFFF" d="M24.629,49.365c-0.625,0-1.221-0.126-1.667-0.384L1.754,36.737
					c-0.453-0.262-0.709-0.633-0.72-1.044v-2.034h0.517c0.133-0.121,0.289-0.233,0.463-0.335l27.088-15.747
					c1.121-0.648,2.831-0.716,3.812-0.15l21.207,12.245c0.025,0.015,0.05,0.03,0.074,0.046h0.646l-0.002,2.063
					c-0.024,0.493-0.371,0.953-0.979,1.304L26.774,48.831C26.163,49.185,25.376,49.365,24.629,49.365z M1.408,34.033v1.655
					c0.007,0.275,0.192,0.528,0.533,0.726l21.208,12.244c0.876,0.507,2.419,0.438,3.438-0.15l27.088-15.747
					c0.484-0.28,0.773-0.641,0.79-0.989l0.002-1.053l-0.001-0.628h-0.384l-0.047-0.031c-0.051-0.033-0.073-0.049-0.099-0.063
					L32.728,17.751c-0.877-0.506-2.418-0.439-3.439,0.15L2.201,33.648c-0.173,0.1-0.323,0.211-0.445,0.331l-0.054,0.054H1.408z"/>
			</g>
			<g id="XMLID_8179_">
				<path id="XMLID_8183_" fill="#204EA2" d="M23.055,47.04L1.848,34.795c-0.929-0.536-0.813-1.473,0.26-2.093l27.087-15.747
					c1.074-0.619,2.697-0.687,3.626-0.15l21.208,12.244c0.929,0.537,0.812,1.474-0.261,2.094L26.681,46.89
					C25.607,47.509,23.984,47.576,23.055,47.04z"/>
				<path id="XMLID_8180_" fill="#FFFFFF" d="M24.63,47.585c-0.625,0-1.222-0.126-1.668-0.384L1.754,34.957
					c-0.464-0.269-0.72-0.648-0.72-1.07c0-0.496,0.357-0.986,0.981-1.347l27.088-15.747c1.123-0.646,2.832-0.715,3.812-0.15
					l21.207,12.245c0.466,0.269,0.721,0.648,0.721,1.07c0,0.495-0.357,0.986-0.981,1.347L26.774,47.052
					C26.163,47.404,25.376,47.585,24.63,47.585z M31.248,16.627c-0.68,0-1.397,0.166-1.959,0.49L2.201,32.864
					c-0.504,0.291-0.794,0.664-0.794,1.022c0,0.282,0.189,0.548,0.534,0.747l21.208,12.244c0.876,0.507,2.419,0.438,3.438-0.15
					L53.675,30.98c0.504-0.292,0.794-0.664,0.794-1.022c0-0.282-0.19-0.548-0.534-0.747L32.728,16.967
					C32.333,16.738,31.803,16.627,31.248,16.627z"/>
			</g>
			<g id="XMLID_8176_">
				<path id="XMLID_8177_" fill="#FFFFFF" d="M25.079,45.85l-0.091-0.053L4.538,33.99l25.769-14.985l0.09,0.052l20.451,11.808
					L25.079,45.85z"/>
			</g>
			<g id="XMLID_8171_">
				<polygon id="XMLID_8175_" fill="#204EA2" points="25.188,44.659 4.375,32.643 30.654,17.363 51.466,29.38 				"/>
				<path id="XMLID_8172_" fill="#FFFFFF" d="M25.189,44.875l-0.094-0.054L4.002,32.643l26.652-15.495l0.093,0.054L51.839,29.38
					L25.189,44.875z M4.749,32.643l20.44,11.801L51.093,29.38L30.654,17.578L4.749,32.643z"/>
			</g>
			<g id="XMLID_8160_">
				<g id="XMLID_8166_">
					<path id="XMLID_8170_" fill="#204EA2" d="M48.152,22.384l-0.009,0.082l-2.12-1.224c-0.036,0.026-0.069,0.055-0.113,0.079
						c-0.598,0.346-0.945,0.896-1.543,0.552s-1.22-0.46-0.621-0.806c0.043-0.024,0.092-0.044,0.139-0.064l0.193-1.598l-0.824-0.285
						l-0.127,1.445l-2.342-2.349c-0.412-0.237-1.115-0.122-1.25,0.204l-0.299,0.727l-0.271-0.027v1.74c0,0.006-0.001,0.012,0,0.019
						v0.005h0.001c0.01,0.104,0.083,0.205,0.214,0.281l6.442,3.719c0.18,0.104,0.438,0.147,0.687,0.116l2.359-0.303
						c0.379-0.049,0.596-0.245,0.58-0.442v-1.713L48.152,22.384z"/>
					<path id="XMLID_8167_" fill="#FFFFFF" d="M46.148,25.196c-0.229,0-0.451-0.053-0.62-0.151l-6.441-3.718
						c-0.091-0.053-0.163-0.116-0.216-0.188l-0.092,0.046l-0.002-2.271l0.34,0.033l0.246-0.598c0.067-0.165,0.229-0.298,0.454-0.375
						c0.347-0.117,0.772-0.086,1.061,0.08l0.039,0.03l2.06,2.064l0.111-1.268l1.203,0.427v1.976l-0.329-0.112
						c-0.069,0.031-0.097,0.043-0.122,0.058c-0.066,0.038-0.105,0.067-0.127,0.087c0.067,0.052,0.221,0.126,0.338,0.183
						c0.129,0.062,0.27,0.131,0.41,0.212c0.317,0.185,0.518,0.052,0.903-0.239c0.134-0.101,0.284-0.214,0.453-0.312
						c0.024-0.015,0.046-0.03,0.066-0.047l0.099-0.075l0.135,0.042l1.896,1.094l1.308,0.19c0.065,0.01,0.113,0.065,0.113,0.132
						v1.759c0.027,0.304-0.278,0.568-0.742,0.628l-2.358,0.302C46.271,25.192,46.209,25.196,46.148,25.196z M39.15,20.86
						l0.001,0.006c0.005,0.044,0.05,0.096,0.122,0.137l6.442,3.719c0.144,0.084,0.363,0.118,0.569,0.093l2.358-0.303
						c0.282-0.036,0.425-0.163,0.417-0.241v-1.566l-0.744-0.108l-0.02,0.174l-2.262-1.306c-0.01,0.007-0.02,0.014-0.029,0.02
						c-0.151,0.087-0.287,0.188-0.417,0.287c-0.378,0.284-0.77,0.58-1.315,0.265c-0.132-0.076-0.266-0.142-0.385-0.199
						c-0.315-0.153-0.564-0.274-0.572-0.506c-0.008-0.2,0.176-0.332,0.336-0.424c0.014-0.009,0.249,0.146,0.265,0.138v-1.449
						l-0.497-0.236l-0.143,1.623l-2.605-2.614c-0.197-0.103-0.5-0.118-0.734-0.039c-0.117,0.04-0.203,0.102-0.229,0.164
						l-0.353,0.854l-0.205-0.021L39.15,20.86z"/>
				</g>
				<g id="XMLID_8161_">
					<path id="XMLID_8165_" fill="#204EA2" d="M49.031,22.262l-3.008-1.737c-0.037,0.027-0.069,0.056-0.113,0.08
						c-0.598,0.346-1.566,0.346-2.164,0c-0.599-0.345-0.599-0.904,0-1.25c0.043-0.024,0.092-0.044,0.139-0.065l-3.1-1.789
						c-0.412-0.237-1.115-0.123-1.25,0.204l-0.553,1.345c-0.06,0.145,0.016,0.297,0.197,0.402l6.442,3.72
						c0.18,0.104,0.438,0.147,0.687,0.115l2.359-0.303C49.24,22.91,49.447,22.501,49.031,22.262z"/>
					<path id="XMLID_8162_" fill="#FFFFFF" d="M46.148,23.483c-0.229,0-0.451-0.053-0.62-0.151l-6.441-3.719
						c-0.265-0.153-0.374-0.402-0.276-0.636l0.553-1.345c0.067-0.165,0.229-0.299,0.454-0.375c0.347-0.117,0.772-0.086,1.061,0.08
						l3.413,1.971l-0.329,0.15c-0.069,0.03-0.097,0.042-0.122,0.058c-0.23,0.132-0.355,0.297-0.355,0.463
						c0,0.167,0.125,0.332,0.354,0.464c0.536,0.309,1.442,0.309,1.979,0c0.024-0.015,0.046-0.03,0.066-0.047l0.099-0.075
						l0.135,0.041l3.008,1.737c0.232,0.134,0.346,0.34,0.303,0.55c-0.054,0.27-0.336,0.469-0.736,0.52l-2.358,0.303
						C46.271,23.479,46.209,23.483,46.148,23.483z M40.259,17.562c-0.111,0-0.223,0.017-0.322,0.05
						c-0.117,0.04-0.203,0.102-0.229,0.164l-0.554,1.345c-0.031,0.076,0.083,0.149,0.118,0.17l6.442,3.719
						c0.144,0.083,0.363,0.118,0.569,0.093l2.358-0.303c0.28-0.036,0.405-0.155,0.418-0.223c0.014-0.068-0.091-0.135-0.124-0.153
						l-2.902-1.676c-0.01,0.007-0.02,0.013-0.029,0.02c-0.661,0.38-1.694,0.38-2.354,0c-0.35-0.201-0.542-0.481-0.542-0.787
						c0-0.26,0.14-0.502,0.397-0.692l-2.816-1.625C40.576,17.596,40.418,17.562,40.259,17.562z"/>
				</g>
			</g>
			<g id="XMLID_8155_">
				<path id="XMLID_8159_" fill="#204EA2" d="M49.39,28.243l-16.676-9.628c-0.401-0.231-0.352-0.636,0.111-0.902l1.031-0.596
					c0.463-0.268,1.163-0.296,1.564-0.065l16.676,9.629c0.4,0.231,0.351,0.635-0.112,0.902l-1.032,0.596
					C50.491,28.445,49.791,28.475,49.39,28.243z"/>
				<path id="XMLID_8156_" fill="#FFFFFF" d="M50.071,28.587c-0.287,0-0.563-0.06-0.774-0.182l-16.676-9.628
					c-0.234-0.136-0.363-0.333-0.363-0.554c-0.001-0.253,0.172-0.498,0.475-0.673l1.032-0.596c0.522-0.301,1.29-0.33,1.75-0.064
					l16.677,9.628c0.234,0.136,0.363,0.332,0.363,0.554c0,0.253-0.174,0.498-0.477,0.673l-1.031,0.596
					C50.765,28.504,50.41,28.587,50.071,28.587z M49.484,28.081c0.342,0.198,0.973,0.169,1.376-0.064l1.032-0.596
					c0.181-0.104,0.289-0.234,0.289-0.349c0-0.105-0.097-0.184-0.178-0.23l-16.676-9.627c-0.343-0.199-0.974-0.169-1.377,0.064
					l-1.031,0.595c-0.182,0.104-0.289,0.235-0.289,0.35c0,0.105,0.096,0.183,0.177,0.229L49.484,28.081z"/>
			</g>
			<g id="XMLID_8150_">
				<path id="XMLID_8154_" fill="#204EA2" d="M44.166,26.024l-8.338-4.814c-0.199-0.116-0.175-0.317,0.057-0.451l0.516-0.298
					c0.231-0.134,0.582-0.148,0.781-0.032l8.339,4.813c0.2,0.116,0.175,0.318-0.056,0.451l-0.517,0.298
					C44.716,26.125,44.367,26.14,44.166,26.024z"/>
				<path id="XMLID_8151_" fill="#FFFFFF" d="M44.507,26.29c-0.16,0-0.314-0.034-0.435-0.104l-8.338-4.813
					c-0.146-0.084-0.229-0.215-0.229-0.358c0-0.16,0.104-0.312,0.284-0.417l0.516-0.298c0.293-0.168,0.709-0.183,0.969-0.032
					l8.338,4.813c0.146,0.084,0.229,0.215,0.229,0.358c0,0.161-0.104,0.312-0.284,0.417l-0.517,0.298
					C44.884,26.244,44.693,26.29,44.507,26.29z M36.844,20.536c-0.122,0-0.253,0.03-0.351,0.087l-0.516,0.298
					c-0.078,0.045-0.098,0.085-0.098,0.093c0,0.002,0.012,0.017,0.041,0.034l8.338,4.814c0.145,0.084,0.422,0.067,0.596-0.032
					l0.516-0.298c0.078-0.045,0.098-0.086,0.098-0.094c-0.001-0.002-0.012-0.018-0.042-0.034l-8.339-4.813
					C37.026,20.554,36.937,20.536,36.844,20.536z"/>
			</g>
		</g>
		<g id="XMLID_8115_">
			<g id="XMLID_8144_">
				<path id="XMLID_8148_" fill="#FFFFFF" d="M29.203,30.134c-0.698-0.402-1.829-0.402-2.527,0c-0.697,0.403-0.697,1.056,0,1.459
					c0.698,0.402,1.829,0.402,2.527,0C29.9,31.189,29.9,30.537,29.203,30.134z"/>
				<path id="XMLID_8145_" fill="#FFFFFF" d="M31.952,28.271c-2.249-1.299-5.774-1.3-8.025,0c-1.162,0.671-1.802,1.592-1.802,2.593
					c0,1,0.64,1.922,1.802,2.593c1.125,0.65,2.569,0.975,4.013,0.975c1.443,0,2.888-0.324,4.013-0.975
					c1.162-0.671,1.802-1.593,1.802-2.593C33.753,29.862,33.114,28.941,31.952,28.271z M31.474,32.63
					c-1.949,1.124-5.121,1.124-7.07,0c-0.854-0.494-1.325-1.121-1.325-1.767c0-0.646,0.47-1.272,1.325-1.766
					c0.975-0.562,2.255-0.845,3.535-0.845s2.561,0.282,3.535,0.845c0.854,0.493,1.324,1.12,1.324,1.766S32.329,32.136,31.474,32.63z
					"/>
			</g>
			<g id="XMLID_8116_">
				<g id="XMLID_8119_">
					<g id="XMLID_8127_">
						<path id="XMLID_8136_" fill="#204EA2" d="M27.188,0.791c-3.769,1.736-7.147,6.995-7.468,11.854
							c-0.128,1.945,0.256,3.518,1.019,4.59l5.428,10.294l2.603,1.271c0.234-0.531,4.032-18.611,4.207-19.156l0,0
							c0.406-1.271,3.186-2.069,3.205-3.307C36.257,1.811,30.863-0.902,27.188,0.791z M26.711,12.391
							c-1.484,0.741-2.621-0.168-2.528-2.015c0.092-1.823,1.35-3.849,2.798-4.54c1.433-0.685,2.541,0.187,2.484,1.961
							C29.408,9.594,28.18,11.657,26.711,12.391z"/>
						<path id="XMLID_8133_" fill="#204EA2" d="M27.657,1.717c-3.769,1.737-7.148,6.996-7.468,11.855
							c-0.061,0.924,0.002,1.757,0.158,2.499c4.3,2.586,7.521,2.435,10.879,4.726c1.046-4.858,2.128-9.94,2.219-10.226
							c0.408-1.271,2.49-2.223,2.511-3.461C36.032,2.583,31.332,0.024,27.657,1.717z M27.18,13.317
							c-1.483,0.741-2.621-0.168-2.528-2.015c0.092-1.823,1.35-3.849,2.797-4.54c1.435-0.685,2.54,0.187,2.484,1.961
							C29.876,10.521,28.65,12.584,27.18,13.317z"/>
						<path id="XMLID_8128_" fill="#FFFFFF" d="M28.912,29.188l-2.955-1.442l-0.043-0.083l-5.428-10.295
							c-0.81-1.134-1.181-2.784-1.052-4.74C19.755,7.749,23.18,2.322,27.068,0.53l0,0c1.955-0.901,4.515-0.638,6.52,0.67
							c1.865,1.216,2.915,3.091,2.881,5.143c-0.014,0.8-0.871,1.387-1.7,1.953c-0.667,0.456-1.356,0.929-1.52,1.437
							c-0.068,0.216-0.776,3.517-1.526,7.01c-1.487,6.929-2.551,11.857-2.69,12.174L28.912,29.188z M26.376,27.312l2.211,1.08
							c0.35-1.408,1.621-7.329,2.574-11.771c0.908-4.234,1.469-6.84,1.541-7.064c0.223-0.695,0.996-1.225,1.742-1.734
							c0.709-0.485,1.441-0.986,1.451-1.489c0.03-1.852-0.924-3.548-2.621-4.653c-1.844-1.203-4.186-1.449-5.967-0.63l0,0
							c-3.717,1.713-6.993,6.923-7.302,11.614c-0.12,1.823,0.214,3.347,0.967,4.404L26.376,27.312z M25.726,12.936
							c-0.337,0-0.65-0.089-0.924-0.268c-0.628-0.411-0.958-1.251-0.905-2.306c0.098-1.938,1.398-4.04,2.96-4.785
							c0.736-0.351,1.439-0.349,1.982,0.007c0.611,0.399,0.943,1.209,0.912,2.222c-0.061,1.897-1.367,4.069-2.912,4.842h0
							C26.454,12.839,26.077,12.936,25.726,12.936z M27.912,5.89c-0.25,0-0.523,0.068-0.808,0.204
							c-1.367,0.652-2.549,2.58-2.635,4.296c-0.043,0.848,0.193,1.502,0.646,1.799c0.38,0.249,0.901,0.229,1.468-0.055
							c1.376-0.688,2.54-2.638,2.595-4.347c0.025-0.808-0.212-1.437-0.651-1.724C28.349,5.947,28.141,5.89,27.912,5.89z"/>
					</g>
					<g id="XMLID_8120_">
						<g id="XMLID_8121_">
							<path id="XMLID_8125_" fill="#204EA2" d="M36.242,7.115c0.076-4.527-2.775-6.747-6.451-5.054
								c-3.769,1.736-7.147,6.995-7.468,11.855c-0.128,1.945,0.256,3.518,1.019,4.59l5.428,10.294l6.195-16.27
								c0.234-0.531,0.439-1.071,0.614-1.615l0,0l0,0C35.986,9.645,36.221,8.353,36.242,7.115z"/>
							<path id="XMLID_8122_" fill="#FFFFFF" d="M28.912,29.188l-0.35-0.167L23.088,18.64c-0.81-1.133-1.18-2.784-1.051-4.742
								c0.322-4.879,3.746-10.305,7.634-12.097c1.741-0.801,3.396-0.788,4.66,0.036c1.458,0.951,2.239,2.828,2.198,5.283l0,0
								c-0.021,1.24-0.249,2.547-0.678,3.884c-0.177,0.552-0.387,1.104-0.625,1.643L28.912,29.188z M32.14,1.783
								c-0.696,0-1.451,0.179-2.23,0.538c-3.717,1.712-6.992,6.923-7.301,11.614c-0.12,1.824,0.214,3.347,0.966,4.405l5.152,9.766
								l5.969-15.678c0.236-0.533,0.438-1.067,0.61-1.601c0.41-1.282,0.629-2.534,0.649-3.718c0.037-2.219-0.669-3.966-1.938-4.793
								C33.471,1.961,32.834,1.783,32.14,1.783z"/>
						</g>
					</g>
				</g>
				<g id="XMLID_8117_">
					<path id="XMLID_8118_" fill="#FFFFFF" d="M28.986,17.199l-2.763-1.88c-0.387-0.264-0.359-1.037,0.063-1.729l0,0
						c0.422-0.69,1.078-1.037,1.465-0.773l1.393,0.947l2.571-5.223c0.362-0.721,1.016-1.175,1.459-1.013l0,0
						c0.444,0.162,0.51,0.879,0.147,1.601l-3.852,7.772C29.347,17.149,29.118,17.289,28.986,17.199z"/>
				</g>
			</g>
		</g>
	</g>
</g>
</svg>
